<svg width="240" viewBox="0 0 240 180" fill="none" xmlns="http://www.w3.org/2000/svg">
<g clip-path="url(#clip0_86_1919)">
<path d="M60.251 120.273H59.3992V130.449H60.251V120.273Z" fill="white" fill-opacity="0.62"/>
<path d="M63.7532 120.556H55.613C54.8825 120.556 54.2883 119.965 54.2883 119.237V116.222C54.2883 115.495 54.8825 114.903 55.613 114.903H63.7532C64.4837 114.903 65.0779 115.495 65.0779 116.222V119.237C65.0779 119.965 64.4837 120.556 63.7532 120.556ZM58.6423 115.468C56.5513 115.468 54.8562 117.156 54.8562 119.237C54.8562 119.653 55.1951 119.991 55.613 119.991H63.7532C64.1712 119.991 64.51 119.654 64.51 119.237V116.222C64.51 115.806 64.1712 115.468 63.7532 115.468H58.6423Z" fill="white" fill-opacity="0.62"/>
<path d="M108.744 144.819H107.892V154.994H108.744V144.819Z" fill="white" fill-opacity="0.62"/>
<path d="M112.246 145.102H104.106C103.376 145.102 102.781 144.51 102.781 143.783V140.768C102.781 140.04 103.376 139.449 104.106 139.449H112.246C112.977 139.449 113.571 140.04 113.571 140.768V143.783C113.571 144.51 112.977 145.102 112.246 145.102ZM107.135 140.014C105.044 140.014 103.349 141.702 103.349 143.783C103.349 144.199 103.688 144.537 104.106 144.537H112.246C112.664 144.537 113.003 144.199 113.003 143.783V140.768C113.003 140.351 112.664 140.014 112.246 140.014H107.135Z" fill="white" fill-opacity="0.62"/>
<path d="M196.64 175.749L193.361 175.749L191.802 163.159L196.641 163.16L196.64 175.749Z" fill="#FAD5D5"/>
<path d="M196.756 179.154L186.673 179.154V179.027C186.673 176.869 188.43 175.12 190.597 175.12L192.439 173.729L195.876 175.12L196.756 175.12L196.756 179.154Z" fill="#565567"/>
<path d="M180.469 175.749L177.19 175.749L175.63 163.159L180.469 163.16L180.469 175.749Z" fill="#FAD5D5"/>
<path d="M180.584 179.154L170.501 179.154V179.027C170.502 176.869 172.259 175.12 174.426 175.12L176.268 173.729L179.704 175.12L180.584 175.12L180.584 179.154Z" fill="#565567"/>
<path d="M182.201 104.513L204.437 103.507L206.661 116.385L205.246 120.812L204.033 125.843L200.394 143.551L197.362 169.71H190.927L190.792 144.859L192.302 142.806V141.437L191.271 123.327L184.526 140.834L185.132 143.249L183.313 147.676L181.129 169.71H175.112L173.812 139.627L178.664 121.114V117.693L179.472 116.083L182.201 104.513Z" fill="#565567"/>
<path d="M196.857 63.1609H188.751L187.76 67.5879L179.877 71.21L182.707 91.735L181.09 98.3755V100.991L180.281 103.406L179.877 111.111L207.57 113.065L205.751 109.04L206.357 106.626L205.751 105.217L204.134 93.3448L205.347 70.4051L199.08 68.1916L196.857 63.1609Z" fill="#ADADB1"/>
<path d="M155 101.289L160.806 96.4828L164.027 99.4011L157.707 104.266C157.661 104.504 157.58 104.74 157.461 104.966C156.811 106.196 155.282 106.668 154.047 106.02C152.812 105.373 152.338 103.851 152.988 102.622C153.403 101.837 154.175 101.363 155 101.289Z" fill="#FAD5D5"/>
<path d="M185.014 72.8713L181.929 71.6352C180.972 71.0533 179.741 71.1785 178.927 71.9459C177.377 73.4078 175.091 75.8429 174.887 77.664C174.887 77.664 167.523 85.2527 167.427 86.6864C167.332 88.1202 157.231 98.9496 157.231 98.9496L161.936 102.431L180.968 84.3211L182.682 75.147C183.488 73.9778 186.229 73.6107 185.014 72.8713Z" fill="#ADADB1"/>
<path d="M193.098 62.4567C196.926 62.4567 200.028 59.368 200.028 55.558C200.028 51.7479 196.926 48.6592 193.098 48.6592C189.271 48.6592 186.168 51.7479 186.168 55.558C186.168 59.368 189.271 62.4567 193.098 62.4567Z" fill="#FAD5D5"/>
<path d="M200.507 58.8187C200.347 58.6224 200.281 58.3769 200.121 58.1806C200.129 58.5038 200.125 58.831 200.182 59.146C200.19 59.1951 200.199 59.2565 200.211 59.3342C200.215 59.3506 200.219 59.3587 200.223 59.3751C200.223 59.3833 200.227 59.3915 200.227 59.3997C199.738 60.3201 199.18 60.8888 198.777 61.0483C197.782 61.4451 196.438 61.7847 196.352 61.8501C196.447 61.7029 199.973 56.2128 198.777 55.816C197.564 55.4151 197.667 56.1637 197.667 56.1637C197.115 53.9103 196.006 52.9832 194.33 53.4023C192.144 53.3246 190.003 52.6619 188.893 54.9487C188.766 54.421 188.573 53.9055 188.347 53.4351C188.301 53.9382 188.301 54.4987 188.137 54.9896C186.584 56.3383 185.653 56.1083 185.063 55.2351C185.063 55.0592 185.067 54.8792 185.08 54.7032C185.092 54.5846 185.104 54.4742 185.125 54.3596C185.19 54.0283 185.449 53.836 185.577 53.5455C185.293 53.701 184.997 53.8483 184.743 54.0446C184.706 54.0733 184.652 54.1101 184.59 54.1551C184.43 53.1119 183.88 49.6141 185.638 50.7841C187.397 51.9541 186.448 49.5773 186.448 49.5773H188.556C188.556 49.5773 188.918 49.1027 189.559 48.5996C189.674 48.6323 189.781 48.665 189.888 48.7059C190.204 48.8287 189.185 47.6873 189.452 47.8632C189.349 47.5605 190.418 48.6732 190.27 48.3868C190.245 48.3377 190.319 47.54 190.274 47.4541C191.449 46.7464 197.088 46.7429 198.904 48.2723C201.189 50.1962 198.297 49.2146 201.201 52.9973C202.36 54.5059 202.281 55.9226 200.507 58.8187Z" fill="#956952"/>
<path d="M143.038 180H26.6911C23.7578 180 21.3713 177.624 21.3713 174.704V47.8397C21.3713 44.9197 23.7578 42.5441 26.6911 42.5441H143.038C145.971 42.5441 148.358 44.9197 148.358 47.8397V174.704C148.358 177.624 145.971 180 143.038 180ZM56.6814 43.3623C37.6341 43.3623 22.1933 58.7331 22.1933 77.694V174.704C22.1933 177.177 24.2071 179.182 26.6913 179.182H143.038C145.522 179.182 147.536 177.177 147.536 174.704V47.8397C147.536 45.3669 145.522 43.3623 143.038 43.3623L56.6814 43.3623Z" fill="white" fill-opacity="0.62"/>
<path d="M211.668 180H160.664C157.73 180 155.344 177.624 155.344 174.704V47.8397C155.344 44.9197 157.73 42.5441 160.664 42.5441H211.668C214.601 42.5441 216.988 44.9197 216.988 47.8397V174.704C216.988 177.624 214.601 180 211.668 180ZM160.664 43.3623C158.183 43.3623 156.166 45.3708 156.166 47.8397V174.704C156.166 177.173 158.183 179.182 160.664 179.182H211.668C214.148 179.182 216.166 177.173 216.166 174.704V47.8397C216.166 45.3708 214.148 43.3623 211.668 43.3623L160.664 43.3623Z" fill="white" fill-opacity="0.62"/>
<path d="M234.621 0H5.38355C2.41639 0 0 2.40133 0 5.35504V81.7781C0 84.6091 2.22325 86.9409 5.02191 87.1209C5.1411 87.1331 5.26029 87.1372 5.38355 87.1372H21.4603V86.319H5.38355C5.26029 86.319 5.1411 86.315 5.02191 86.3027C2.67535 86.1186 0.821922 84.159 0.821922 81.7781V5.35504C0.821918 2.85138 2.86849 0.81819 5.38355 0.81819H234.621C237.136 0.81819 239.178 2.85138 239.178 5.35504V81.7781C239.178 84.2818 237.136 86.319 234.621 86.319H216.255V87.1372H234.621C237.588 87.1372 240 84.7317 240 81.7781V5.35504C240 2.40134 237.588 0 234.621 0Z" fill="white" fill-opacity="0.62"/>
<path d="M79.6429 129.02H70.7703C70.7703 128.918 70.7785 128.816 70.7949 128.705C71.0251 126.971 73.0634 124.414 74.2881 123.882C74.5223 123.784 74.7278 123.755 74.884 123.825C75.0853 123.911 75.2086 124.16 75.2086 124.606C75.2086 125.658 75.8744 126.193 76.6922 126.59C76.4908 126.901 76.2319 127.151 75.8908 127.233C76.5689 127.376 77.6127 127.56 78.4264 127.359C79.0265 127.67 79.499 128.059 79.6141 128.705C79.6347 128.803 79.6429 128.91 79.6429 129.02Z" fill="#553ACF"/>
<path d="M74.5248 123.927C74.9016 123.927 75.2071 123.623 75.2071 123.248C75.2071 122.873 74.9016 122.569 74.5248 122.569C74.148 122.569 73.8425 122.873 73.8425 123.248C73.8425 123.623 74.148 123.927 74.5248 123.927Z" fill="#ADADB1"/>
<path d="M75.207 134.023C78.1575 134.023 80.5494 131.642 80.5494 128.705H69.8645C69.8645 131.642 72.2564 134.023 75.207 134.023Z" fill="white"/>
<path d="M101.835 145.384H92.9619C92.9619 145.282 92.9701 145.18 92.9866 145.069C93.0893 144.292 93.5578 143.351 94.1496 142.5C94.4332 142.537 94.6879 142.635 94.8811 142.831C94.7907 142.582 94.6838 142.283 94.5441 141.972C95.1893 141.154 95.9208 140.487 96.4797 140.246C96.714 140.148 96.9195 140.119 97.0756 140.189C97.277 140.275 97.4003 140.524 97.4003 140.97C97.4003 143.564 101.436 143.007 101.806 145.069C101.826 145.167 101.835 145.274 101.835 145.384Z" fill="#553ACF"/>
<path d="M96.7164 140.291C97.0932 140.291 97.3987 139.987 97.3987 139.612C97.3987 139.237 97.0932 138.933 96.7164 138.933C96.3396 138.933 96.0342 139.237 96.0342 139.612C96.0342 139.987 96.3396 140.291 96.7164 140.291Z" fill="#ADADB1"/>
<path d="M97.3986 150.387C100.349 150.387 102.741 148.006 102.741 145.069H92.0562C92.0562 148.006 94.4481 150.387 97.3986 150.387Z" fill="white"/>
<path d="M96.4709 123.493C94.2598 123.493 92.4673 125.277 92.4673 127.478H100.475C100.475 125.277 98.682 123.493 96.4709 123.493Z" fill="#553ACF"/>
<path d="M100.474 126.251H92.469C92.469 124.05 94.2608 122.266 96.4717 122.266C97.1334 122.266 97.758 122.426 98.3046 122.708C98.2829 122.758 98.2607 122.809 98.2378 122.859C98.0657 123.238 98.3393 123.674 98.7568 123.659C98.893 123.655 99.0278 123.648 99.1599 123.638L99.6706 123.854C100.174 124.523 100.474 125.352 100.474 126.251Z" fill="#553ACF"/>
<path d="M96.5768 131.978C99.5274 131.978 101.919 129.597 101.919 126.66H91.2344C91.2344 129.597 93.6263 131.978 96.5768 131.978Z" fill="white"/>
<path d="M181.539 87.4921C179.328 87.4921 177.536 89.2765 177.536 91.4776H185.543C185.543 89.2765 183.75 87.4921 181.539 87.4921Z" fill="#553ACF"/>
<path d="M185.543 90.2503H177.537C177.537 88.0494 179.329 86.2657 181.54 86.2657C182.202 86.2657 182.826 86.4252 183.373 86.7076C183.351 86.7578 183.329 86.8085 183.306 86.8591C183.134 87.2379 183.408 87.6734 183.825 87.659C183.961 87.6543 184.096 87.6472 184.228 87.6378L184.739 87.8534C185.242 88.5225 185.543 89.3519 185.543 90.2503Z" fill="#553ACF"/>
<path d="M181.645 95.9777C184.596 95.9777 186.988 93.5966 186.988 90.6594H176.303C176.303 93.5966 178.695 95.9777 181.645 95.9777Z" fill="white"/>
<path d="M57.6214 78.1511C60.4502 78.1511 62.7433 75.9164 62.7433 73.1598C62.7433 70.4032 60.4502 68.1686 57.6214 68.1686C54.7927 68.1686 52.4995 70.4032 52.4995 73.1598C52.4995 75.9164 54.7927 78.1511 57.6214 78.1511Z" fill="#553ACF"/>
<path d="M98.6814 71.4523H71.1123C70.1665 71.4523 69.397 70.6863 69.397 69.7448C69.397 68.8033 70.1665 68.0372 71.1123 68.0372H98.6814C99.6272 68.0372 100.397 68.8033 100.397 69.7448C100.397 70.6863 99.6272 71.4523 98.6814 71.4523Z" fill="white" fill-opacity="0.62"/>
<path d="M120.197 77.2316H71.1123C70.1665 77.2316 69.397 76.4656 69.397 75.5241C69.397 74.5826 70.1665 73.8166 71.1123 73.8166H120.197C121.142 73.8166 121.912 74.5826 121.912 75.5241C121.912 76.4656 121.142 77.2316 120.197 77.2316Z" fill="white" fill-opacity="0.62"/>
<path d="M98.6814 89.8615H71.1123C70.1665 89.8615 69.397 89.0955 69.397 88.154C69.397 87.2125 70.1665 86.4465 71.1123 86.4465H98.6814C99.6272 86.4465 100.397 87.2125 100.397 88.154C100.397 89.0955 99.6272 89.8615 98.6814 89.8615Z" fill="white" fill-opacity="0.62"/>
<path d="M120.197 95.6409H71.1123C70.1665 95.6409 69.397 94.8749 69.397 93.9334C69.397 92.9919 70.1665 92.2258 71.1123 92.2258H120.197C121.142 92.2258 121.912 92.9919 121.912 93.9334C121.912 94.8749 121.142 95.6409 120.197 95.6409Z" fill="white" fill-opacity="0.62"/>
<path d="M55.9774 26.196C58.8061 26.196 61.0993 23.9613 61.0993 21.2047C61.0993 18.4482 58.8061 16.2135 55.9774 16.2135C53.1486 16.2135 50.8555 18.4482 50.8555 21.2047C50.8555 23.9613 53.1486 26.196 55.9774 26.196Z" fill="#553ACF"/>
<path d="M97.0374 19.4972H69.4682C68.5225 19.4972 67.7529 18.7312 67.7529 17.7897C67.7529 16.8482 68.5224 16.0822 69.4682 16.0822H97.0374C97.9832 16.0822 98.7527 16.8482 98.7527 17.7897C98.7527 18.7312 97.9832 19.4972 97.0374 19.4972Z" fill="white" fill-opacity="0.62"/>
<path d="M118.552 25.2766H69.4682C68.5225 25.2766 67.7529 24.5105 67.7529 23.569C67.7529 22.6275 68.5224 21.8615 69.4682 21.8615H118.552C119.498 21.8615 120.268 22.6275 120.268 23.569C120.268 24.5105 119.498 25.2766 118.552 25.2766Z" fill="white" fill-opacity="0.62"/>
<path d="M117.716 179.965L116.932 179.719L122.247 162.943C122.696 161.524 118.619 180.633 117.735 179.433C116.851 178.233 119.315 156.933 117.82 156.933H52.0498C50.6437 156.933 51.6337 177.937 50.7484 179.024C49.8629 180.111 47.2179 161.14 47.5089 162.509L50.7394 177.712L49.9354 177.881L46.7048 162.679C46.3623 161.067 46.7635 159.408 47.8056 158.129C48.8478 156.849 50.3947 156.115 52.0498 156.115H117.82C119.58 156.115 121.186 156.925 122.226 158.337C123.267 159.75 123.56 161.518 123.031 163.189L117.716 179.965Z" fill="white" fill-opacity="0.62"/>
<path d="M96.1528 151.441L96.9459 151.69L110.471 155.937C112.147 156.46 113.923 156.17 115.345 155.135C116.762 154.1 117.576 152.5 117.576 150.749L117.576 134.778C117.576 133.13 116.84 131.592 115.554 130.552C114.268 129.513 112.599 129.117 110.98 129.456L96.5268 132.5L95.709 132.672L95.7172 132.708L95.8816 133.473L96.0131 133.445L96.8186 133.277L111.153 130.258C112.53 129.967 113.943 130.307 115.036 131.187C116.13 132.07 116.754 133.379 116.754 134.778L116.754 150.749C116.754 152.239 116.064 153.597 114.856 154.476C113.651 155.356 112.143 155.601 110.717 155.155L97.024 150.86L96.2062 150.602L96.1528 151.441Z" fill="white" fill-opacity="0.62"/>
<path d="M75.7117 134.088L74.9185 133.839L61.3939 129.592C59.7171 129.069 57.9418 129.359 56.5199 130.394C55.1021 131.429 54.2884 133.029 54.2884 134.78L54.2883 150.751C54.2883 152.399 55.0239 153.938 56.3102 154.977C57.5965 156.016 59.265 156.413 60.8842 156.073L75.3376 153.029L76.1554 152.858L76.1472 152.821L75.9828 152.056L75.8513 152.084L75.0459 152.252L60.7116 155.271C59.3349 155.562 57.9212 155.222 56.828 154.343C55.7349 153.459 55.1102 152.15 55.1102 150.751L55.1103 134.78C55.1103 133.291 55.8007 131.932 57.0089 131.053C58.213 130.173 59.7212 129.928 61.1473 130.374L74.8404 134.669L75.6582 134.927L75.7117 134.088Z" fill="white" fill-opacity="0.62"/>
<path d="M182.734 92.4642L190.117 90.887L191.61 94.9598L183.745 96.3508C183.593 96.541 183.412 96.7127 183.2 96.8578C182.051 97.6466 180.477 97.3588 179.685 96.2149C178.892 95.071 179.181 93.5042 180.331 92.7153C181.063 92.2122 181.968 92.1487 182.734 92.4642Z" fill="#FAD5D5"/>
<path d="M205.014 70.6828C206.771 70.2791 208.555 71.2637 209.128 72.9655C210.028 75.6337 210.975 79.5185 209.996 82.0762L209.188 88.7167L208.177 92.3387V92.8576L186.548 95.9608L185.537 90.7289L199.485 88.5154L199.889 86.1007L200.266 85.7252L200.784 82.9817L202.339 73.5239C202.569 72.1242 203.626 71.0017 205.014 70.6828Z" fill="#ADADB1"/>
<path d="M75.101 142.72C72.8899 142.72 71.0974 144.504 71.0974 146.705H79.1046C79.1046 144.504 77.3122 142.72 75.101 142.72Z" fill="#553ACF"/>
<path d="M79.1046 145.478H71.0991C71.0991 143.277 72.8909 141.494 75.1019 141.494C75.7635 141.494 76.3882 141.653 76.9347 141.935C76.913 141.986 76.8909 142.036 76.8679 142.087C76.6958 142.466 76.9695 142.901 77.3869 142.887C77.5231 142.882 77.658 142.875 77.79 142.866L78.3008 143.081C78.8041 143.75 79.1046 144.58 79.1046 145.478Z" fill="#553ACF"/>
<path d="M75.207 151.206C78.1575 151.206 80.5494 148.824 80.5494 145.887H69.8645C69.8645 148.824 72.2564 151.206 75.207 151.206Z" fill="white"/>
<path d="M72.8204 145.7C73.1972 145.7 73.5027 145.396 73.5027 145.021C73.5027 144.646 73.1972 144.342 72.8204 144.342C72.4436 144.342 72.1382 144.646 72.1382 145.021C72.1382 145.396 72.4436 145.7 72.8204 145.7Z" fill="#ADADB1"/>
<path d="M99.9437 126.472C100.321 126.472 100.626 126.168 100.626 125.793C100.626 125.418 100.321 125.114 99.9437 125.114C99.5669 125.114 99.2615 125.418 99.2615 125.793C99.2615 126.168 99.5669 126.472 99.9437 126.472Z" fill="#ADADB1"/>
<path d="M103.193 149.267H90.8638V151.313H103.193V149.267Z" fill="white" fill-opacity="0.62"/>
<path d="M81.4118 150.494H69.083V152.54H81.4118V150.494Z" fill="white" fill-opacity="0.62"/>
<path d="M81.4118 133.312H69.083V135.358H81.4118V133.312Z" fill="white" fill-opacity="0.62"/>
<path d="M103.193 131.676H90.8638V133.722H103.193V131.676Z" fill="white" fill-opacity="0.62"/>
<path d="M57.4773 95.4812C59.8652 95.4812 61.8009 93.5542 61.8009 91.1772C61.8009 88.8002 59.8652 86.8733 57.4773 86.8733C55.0895 86.8733 53.1538 88.8002 53.1538 91.1772C53.1538 93.5542 55.0895 95.4812 57.4773 95.4812Z" fill="white"/>
<path d="M57.4774 95.7756C54.9303 95.7756 52.8582 93.7128 52.8582 91.1772C52.8582 88.6417 54.9303 86.5789 57.4774 86.5789C60.0245 86.5789 62.0967 88.6417 62.0967 91.1772C62.0967 93.7128 60.0245 95.7756 57.4774 95.7756ZM57.4774 87.0476C55.19 87.0476 53.329 88.9002 53.329 91.1772C53.329 93.4543 55.19 95.3069 57.4774 95.3069C59.7649 95.3069 61.6259 93.4543 61.6259 91.1772C61.6259 88.9002 59.7649 87.0476 57.4774 87.0476Z" fill="#ADADB1"/>
<path d="M56.8875 93.4172C56.7364 93.4172 56.5938 93.3464 56.5028 93.2256L55.3233 91.6601C55.1639 91.4486 55.207 91.1485 55.4194 90.9898C55.632 90.8311 55.9334 90.8739 56.0928 91.0856L56.8645 92.1098L58.8464 89.1503C58.9938 88.9303 59.2925 88.8712 59.5134 89.0175C59.7344 89.1642 59.7941 89.4615 59.6468 89.6814L57.2877 93.204C57.2011 93.3333 57.0569 93.4127 56.9009 93.417L56.8875 93.4172Z" fill="#553ACF"/>
<path d="M97.2402 117.754C98.3318 115.301 98.595 112.53 98.0084 109.913C97.4369 107.364 96.009 105.046 94.032 103.336C92.9284 102.381 91.6605 101.616 90.293 101.1C89.9656 100.976 89.7078 101.46 90.0386 101.585C92.3661 102.464 94.3886 104.063 95.7775 106.12C97.2012 108.228 97.8751 110.755 97.7524 113.289C97.6822 114.738 97.3428 116.175 96.7526 117.501C96.6097 117.822 97.0965 118.077 97.2402 117.754Z" fill="white"/>
<path d="M91.8933 99.4693L87.178 99.2536C87.0065 99.2457 86.8632 99.4521 86.9255 99.6093L88.8336 104.424C88.9627 104.75 89.4884 104.588 89.3582 104.26L87.4501 99.4451L87.1976 99.8008L91.9129 100.017C92.267 100.033 92.2446 99.4853 91.8933 99.4693Z" fill="white"/>
<path d="M169.087 32.1179C168.578 29.4837 167.206 27.0584 165.224 25.2425C163.293 23.4736 160.792 22.3812 158.188 22.0992C156.734 21.9418 155.255 22.034 153.836 22.3867C153.496 22.4712 153.562 23.0151 153.905 22.9298C156.32 22.3295 158.898 22.4944 161.218 23.3946C163.595 24.3173 165.597 26.0098 166.949 28.1602C167.721 29.3899 168.266 30.7626 168.542 32.1869C168.608 32.5317 169.154 32.4647 169.087 32.1179Z" fill="white"/>
<path d="M154.216 20.1387L150.22 22.6398C150.074 22.7308 150.075 22.9817 150.216 23.0754L154.543 25.9455C154.835 26.1398 155.175 25.7085 154.879 25.5127L150.553 22.6426L150.549 23.0781L154.545 20.577C154.845 20.3892 154.513 19.9524 154.216 20.1387Z" fill="white"/>
</g>
<defs>
<clipPath id="clip0_86_1919">
<rect width="240" height="180" fill="white"/>
</clipPath>
</defs>
</svg>
