<svg preserveAspectRatio="none" viewBox="0 0 1440 143" fill="none" xmlns="http://www.w3.org/2000/svg">
<g clip-path="url(#clip0_209_328)">
<path d="M1440 137.729L1280.16 126.09L1120.32 169.413L959.76 155.188L799.92 176.526L640.08 165.534L480.24 173.94L319.68 167.474L159.84 142.902L-5.72205e-05 177.173V-0.646609H159.84H319.68H480.24H640.08H799.92H959.76H1120.32H1280.16H1440V137.729Z" fill="#212A33"/>
<path d="M1440 126.737L1280.16 120.917L1120.32 135.789L959.76 94.4059L799.92 106.692L640.08 129.323L480.24 142.902L319.68 109.278L159.84 134.496L-5.72205e-05 124.797V-0.64664H159.84H319.68H480.24H640.08H799.92H959.76H1120.32H1280.16H1440V126.737Z" fill="#3B3281"/>
<path d="M1440 100.872L1280.16 54.3158L1120.32 57.5489L959.76 55.609L799.92 84.0601L640.08 100.226L480.24 56.9022L319.68 67.2481L159.84 85.3533L-5.72205e-05 89.8797V-0.646597H159.84H319.68H480.24H640.08H799.92H959.76H1120.32H1280.16H1440V100.872Z" fill="#553ACF"/>
<path d="M1440 32.3308L1280.16 16.812L1120.32 43.3233L959.76 47.8496L799.92 25.8646L640.08 49.1428L480.24 61.4285L319.68 50.4361L159.84 55.609L-5.72205e-05 43.3233V-0.646624H159.84H319.68H480.24H640.08H799.92H959.76H1120.32H1280.16H1440V32.3308Z" fill="white"/>
</g>
<defs>
<clipPath id="clip0_209_328">
<rect width="1440" height="143" fill="white" transform="matrix(-1 0 0 -1 1440 143)"/>
</clipPath>
</defs>
</svg>
